<mxfile host="app.diagrams.net" modified="2024-04-09T19:49:38.628Z" agent="Mozilla/5.0 (Windows NT 10.0; Win64; x64) AppleWebKit/537.36 (KHTML, like Gecko) Chrome/123.0.0.0 Safari/537.36" etag="OtaOmO-90VkkV5aS1NHB" version="24.2.3" type="device">
  <diagram name="Página-1" id="-5zOtFLq7SKK8Ss9scCu">
    <mxGraphModel dx="2062" dy="1834" grid="1" gridSize="10" guides="1" tooltips="1" connect="1" arrows="1" fold="1" page="1" pageScale="1" pageWidth="827" pageHeight="1169" math="0" shadow="0">
      <root>
        <mxCell id="0" />
        <mxCell id="1" parent="0" />
        <mxCell id="MYRkEVuzvfeUx_2Qi6E3-7" value="Administrador" style="shape=umlActor;verticalLabelPosition=bottom;verticalAlign=top;html=1;outlineConnect=0;" parent="1" vertex="1">
          <mxGeometry x="-70" y="440" width="20" height="40" as="geometry" />
        </mxCell>
        <mxCell id="MYRkEVuzvfeUx_2Qi6E3-8" value="Usuario" style="shape=umlActor;verticalLabelPosition=bottom;verticalAlign=top;html=1;outlineConnect=0;" parent="1" vertex="1">
          <mxGeometry x="930" y="-160" width="20" height="40" as="geometry" />
        </mxCell>
        <mxCell id="MYRkEVuzvfeUx_2Qi6E3-9" value="Artista" style="shape=umlActor;verticalLabelPosition=bottom;verticalAlign=top;html=1;outlineConnect=0;" parent="1" vertex="1">
          <mxGeometry x="930" y="240" width="20" height="40" as="geometry" />
        </mxCell>
        <mxCell id="MYRkEVuzvfeUx_2Qi6E3-13" value="Perfil" style="ellipse;whiteSpace=wrap;html=1;" parent="1" vertex="1">
          <mxGeometry x="400" y="160" width="80" height="40" as="geometry" />
        </mxCell>
        <mxCell id="MYRkEVuzvfeUx_2Qi6E3-15" value="modificar y&lt;div&gt;eliminar.&lt;/div&gt;" style="ellipse;whiteSpace=wrap;html=1;" parent="1" vertex="1">
          <mxGeometry x="600" y="-120" width="80" height="40" as="geometry" />
        </mxCell>
        <mxCell id="MYRkEVuzvfeUx_2Qi6E3-17" value="modificar y&lt;div&gt;eliminar.&lt;/div&gt;" style="ellipse;whiteSpace=wrap;html=1;" parent="1" vertex="1">
          <mxGeometry y="240" width="80" height="40" as="geometry" />
        </mxCell>
        <mxCell id="MYRkEVuzvfeUx_2Qi6E3-19" value="&lt;font style=&quot;vertical-align: inherit;&quot;&gt;&lt;font style=&quot;vertical-align: inherit;&quot;&gt;&lt;font style=&quot;vertical-align: inherit;&quot;&gt;&lt;font style=&quot;vertical-align: inherit;&quot;&gt;canción, álbum, género.&lt;/font&gt;&lt;/font&gt;&lt;/font&gt;&lt;/font&gt;" style="ellipse;whiteSpace=wrap;html=1;" parent="1" vertex="1">
          <mxGeometry x="400" y="280" width="80" height="40" as="geometry" />
        </mxCell>
        <mxCell id="MYRkEVuzvfeUx_2Qi6E3-22" value="modificar y&lt;div&gt;eliminar.&lt;/div&gt;" style="ellipse;whiteSpace=wrap;html=1;" parent="1" vertex="1">
          <mxGeometry x="600" y="360" width="80" height="40" as="geometry" />
        </mxCell>
        <mxCell id="MYRkEVuzvfeUx_2Qi6E3-23" value="crear&amp;nbsp;" style="ellipse;whiteSpace=wrap;html=1;" parent="1" vertex="1">
          <mxGeometry y="320" width="80" height="40" as="geometry" />
        </mxCell>
        <mxCell id="EgMsii5ivorulvfqZ3dE-45" value="" style="edgeStyle=orthogonalEdgeStyle;rounded=0;orthogonalLoop=1;jettySize=auto;html=1;" edge="1" parent="1" source="MYRkEVuzvfeUx_2Qi6E3-25" target="MYRkEVuzvfeUx_2Qi6E3-18">
          <mxGeometry relative="1" as="geometry" />
        </mxCell>
        <mxCell id="MYRkEVuzvfeUx_2Qi6E3-25" value="crear&amp;nbsp;" style="ellipse;whiteSpace=wrap;html=1;" parent="1" vertex="1">
          <mxGeometry x="600" y="280" width="80" height="40" as="geometry" />
        </mxCell>
        <mxCell id="MYRkEVuzvfeUx_2Qi6E3-26" value="añadir" style="ellipse;whiteSpace=wrap;html=1;" parent="1" vertex="1">
          <mxGeometry x="600" y="40" width="80" height="40" as="geometry" />
        </mxCell>
        <mxCell id="MYRkEVuzvfeUx_2Qi6E3-28" value="Publicidad" style="ellipse;whiteSpace=wrap;html=1;" parent="1" vertex="1">
          <mxGeometry x="120" y="400" width="80" height="40" as="geometry" />
        </mxCell>
        <mxCell id="MYRkEVuzvfeUx_2Qi6E3-30" value="añadir" style="ellipse;whiteSpace=wrap;html=1;" parent="1" vertex="1">
          <mxGeometry y="400" width="80" height="40" as="geometry" />
        </mxCell>
        <mxCell id="MYRkEVuzvfeUx_2Qi6E3-33" value="Tendencia" style="ellipse;whiteSpace=wrap;html=1;" parent="1" vertex="1">
          <mxGeometry x="240" y="402.5" width="80" height="35" as="geometry" />
        </mxCell>
        <mxCell id="MYRkEVuzvfeUx_2Qi6E3-38" value="" style="endArrow=classic;html=1;rounded=0;exitX=0.5;exitY=0.5;exitDx=0;exitDy=0;exitPerimeter=0;entryX=1;entryY=0.5;entryDx=0;entryDy=0;" parent="1" source="MYRkEVuzvfeUx_2Qi6E3-8" target="MYRkEVuzvfeUx_2Qi6E3-24" edge="1">
          <mxGeometry width="50" height="50" relative="1" as="geometry">
            <mxPoint x="500" y="320" as="sourcePoint" />
            <mxPoint x="550" y="270" as="targetPoint" />
            <Array as="points">
              <mxPoint x="940" y="-20" />
            </Array>
          </mxGeometry>
        </mxCell>
        <mxCell id="MYRkEVuzvfeUx_2Qi6E3-39" value="" style="endArrow=classic;html=1;rounded=0;exitX=0.5;exitY=0.5;exitDx=0;exitDy=0;exitPerimeter=0;entryX=1;entryY=0.5;entryDx=0;entryDy=0;" parent="1" source="MYRkEVuzvfeUx_2Qi6E3-8" target="MYRkEVuzvfeUx_2Qi6E3-26" edge="1">
          <mxGeometry width="50" height="50" relative="1" as="geometry">
            <mxPoint x="510" y="330" as="sourcePoint" />
            <mxPoint x="560" y="280" as="targetPoint" />
            <Array as="points">
              <mxPoint x="940" y="60" />
            </Array>
          </mxGeometry>
        </mxCell>
        <mxCell id="MYRkEVuzvfeUx_2Qi6E3-41" value="" style="endArrow=classic;html=1;rounded=0;exitX=0;exitY=0.5;exitDx=0;exitDy=0;" parent="1" source="MYRkEVuzvfeUx_2Qi6E3-26" target="MYRkEVuzvfeUx_2Qi6E3-16" edge="1">
          <mxGeometry width="50" height="50" relative="1" as="geometry">
            <mxPoint x="530" y="350" as="sourcePoint" />
            <mxPoint x="409" y="255" as="targetPoint" />
            <Array as="points">
              <mxPoint x="280" y="60" />
            </Array>
          </mxGeometry>
        </mxCell>
        <mxCell id="MYRkEVuzvfeUx_2Qi6E3-47" value="" style="endArrow=classic;html=1;rounded=0;exitX=0.5;exitY=0.5;exitDx=0;exitDy=0;exitPerimeter=0;" parent="1" source="MYRkEVuzvfeUx_2Qi6E3-9" edge="1" target="MYRkEVuzvfeUx_2Qi6E3-25">
          <mxGeometry width="50" height="50" relative="1" as="geometry">
            <mxPoint x="700" y="450" as="sourcePoint" />
            <mxPoint x="590" y="380" as="targetPoint" />
            <Array as="points">
              <mxPoint x="940" y="290" />
              <mxPoint x="940" y="300" />
            </Array>
          </mxGeometry>
        </mxCell>
        <mxCell id="MYRkEVuzvfeUx_2Qi6E3-48" value="" style="endArrow=classic;html=1;rounded=0;entryX=0.5;entryY=0;entryDx=0;entryDy=0;" parent="1" source="MYRkEVuzvfeUx_2Qi6E3-16" target="MYRkEVuzvfeUx_2Qi6E3-13" edge="1">
          <mxGeometry width="50" height="50" relative="1" as="geometry">
            <mxPoint x="630" y="320" as="sourcePoint" />
            <mxPoint x="680" y="270" as="targetPoint" />
            <Array as="points">
              <mxPoint x="320" y="140" />
              <mxPoint x="420" y="140" />
            </Array>
          </mxGeometry>
        </mxCell>
        <mxCell id="MYRkEVuzvfeUx_2Qi6E3-52" value="" style="endArrow=classic;html=1;rounded=0;" parent="1" source="MYRkEVuzvfeUx_2Qi6E3-25" target="MYRkEVuzvfeUx_2Qi6E3-19" edge="1">
          <mxGeometry width="50" height="50" relative="1" as="geometry">
            <mxPoint x="535" y="320" as="sourcePoint" />
            <mxPoint x="585" y="270" as="targetPoint" />
            <Array as="points">
              <mxPoint x="540" y="300" />
            </Array>
          </mxGeometry>
        </mxCell>
        <mxCell id="MYRkEVuzvfeUx_2Qi6E3-53" value="" style="endArrow=classic;html=1;rounded=0;entryX=1;entryY=0.5;entryDx=0;entryDy=0;exitX=0.389;exitY=0.018;exitDx=0;exitDy=0;exitPerimeter=0;" parent="1" target="MYRkEVuzvfeUx_2Qi6E3-13" edge="1" source="MYRkEVuzvfeUx_2Qi6E3-25">
          <mxGeometry width="50" height="50" relative="1" as="geometry">
            <mxPoint x="560" y="360" as="sourcePoint" />
            <mxPoint x="610" y="285" as="targetPoint" />
            <Array as="points">
              <mxPoint x="540" y="280" />
              <mxPoint x="540" y="180" />
            </Array>
          </mxGeometry>
        </mxCell>
        <mxCell id="MYRkEVuzvfeUx_2Qi6E3-54" value="" style="endArrow=classic;html=1;rounded=0;exitX=0.5;exitY=0.5;exitDx=0;exitDy=0;exitPerimeter=0;entryX=1;entryY=0.5;entryDx=0;entryDy=0;" parent="1" source="MYRkEVuzvfeUx_2Qi6E3-9" target="MYRkEVuzvfeUx_2Qi6E3-22" edge="1">
          <mxGeometry width="50" height="50" relative="1" as="geometry">
            <mxPoint x="630" y="450" as="sourcePoint" />
            <mxPoint x="680" y="400" as="targetPoint" />
            <Array as="points">
              <mxPoint x="940" y="380" />
            </Array>
          </mxGeometry>
        </mxCell>
        <mxCell id="MYRkEVuzvfeUx_2Qi6E3-55" value="" style="endArrow=classic;html=1;rounded=0;exitX=0.5;exitY=0.5;exitDx=0;exitDy=0;exitPerimeter=0;entryX=1;entryY=0.5;entryDx=0;entryDy=0;" parent="1" source="MYRkEVuzvfeUx_2Qi6E3-9" target="MYRkEVuzvfeUx_2Qi6E3-18" edge="1">
          <mxGeometry width="50" height="50" relative="1" as="geometry">
            <mxPoint x="640" y="460" as="sourcePoint" />
            <mxPoint x="690" y="410" as="targetPoint" />
            <Array as="points">
              <mxPoint x="940" y="220" />
            </Array>
          </mxGeometry>
        </mxCell>
        <mxCell id="MYRkEVuzvfeUx_2Qi6E3-56" value="" style="endArrow=classic;html=1;rounded=0;exitX=0.5;exitY=0;exitDx=0;exitDy=0;entryX=0;entryY=0.5;entryDx=0;entryDy=0;" parent="1" source="MYRkEVuzvfeUx_2Qi6E3-20" target="MYRkEVuzvfeUx_2Qi6E3-21" edge="1">
          <mxGeometry width="50" height="50" relative="1" as="geometry">
            <mxPoint x="600" y="630" as="sourcePoint" />
            <mxPoint x="590" y="130" as="targetPoint" />
            <Array as="points">
              <mxPoint x="520" y="400" />
              <mxPoint x="520" y="140" />
            </Array>
          </mxGeometry>
        </mxCell>
        <mxCell id="MYRkEVuzvfeUx_2Qi6E3-57" value="" style="endArrow=classic;html=1;rounded=0;exitX=0.5;exitY=0;exitDx=0;exitDy=0;" parent="1" source="MYRkEVuzvfeUx_2Qi6E3-25" target="MYRkEVuzvfeUx_2Qi6E3-16" edge="1">
          <mxGeometry width="50" height="50" relative="1" as="geometry">
            <mxPoint x="530" y="610" as="sourcePoint" />
            <mxPoint x="580" y="560" as="targetPoint" />
            <Array as="points">
              <mxPoint x="640" y="260" />
              <mxPoint x="340" y="260" />
              <mxPoint x="340" y="130" />
            </Array>
          </mxGeometry>
        </mxCell>
        <mxCell id="MYRkEVuzvfeUx_2Qi6E3-59" value="" style="endArrow=classic;html=1;rounded=0;exitX=0;exitY=0.5;exitDx=0;exitDy=0;" parent="1" source="MYRkEVuzvfeUx_2Qi6E3-18" target="MYRkEVuzvfeUx_2Qi6E3-27" edge="1">
          <mxGeometry width="50" height="50" relative="1" as="geometry">
            <mxPoint x="680" y="500" as="sourcePoint" />
            <mxPoint x="730" y="450" as="targetPoint" />
            <Array as="points">
              <mxPoint x="280" y="220" />
            </Array>
          </mxGeometry>
        </mxCell>
        <mxCell id="MYRkEVuzvfeUx_2Qi6E3-61" value="" style="endArrow=classic;html=1;rounded=0;exitX=0.5;exitY=0;exitDx=0;exitDy=0;entryX=1;entryY=0.5;entryDx=0;entryDy=0;" parent="1" source="MYRkEVuzvfeUx_2Qi6E3-18" target="MYRkEVuzvfeUx_2Qi6E3-13" edge="1">
          <mxGeometry width="50" height="50" relative="1" as="geometry">
            <mxPoint x="700" y="520" as="sourcePoint" />
            <mxPoint x="750" y="470" as="targetPoint" />
            <Array as="points">
              <mxPoint x="500" y="200" />
            </Array>
          </mxGeometry>
        </mxCell>
        <mxCell id="MYRkEVuzvfeUx_2Qi6E3-62" value="" style="endArrow=classic;html=1;rounded=0;" parent="1" source="MYRkEVuzvfeUx_2Qi6E3-22" target="MYRkEVuzvfeUx_2Qi6E3-19" edge="1">
          <mxGeometry width="50" height="50" relative="1" as="geometry">
            <mxPoint x="570" y="380" as="sourcePoint" />
            <mxPoint x="450.0000000000068" y="260" as="targetPoint" />
            <Array as="points">
              <mxPoint x="440" y="380" />
            </Array>
          </mxGeometry>
        </mxCell>
        <mxCell id="MYRkEVuzvfeUx_2Qi6E3-64" value="" style="endArrow=classic;html=1;rounded=0;exitX=0.5;exitY=0.5;exitDx=0;exitDy=0;exitPerimeter=0;entryX=1;entryY=0.5;entryDx=0;entryDy=0;" parent="1" source="MYRkEVuzvfeUx_2Qi6E3-9" target="MYRkEVuzvfeUx_2Qi6E3-21" edge="1">
          <mxGeometry width="50" height="50" relative="1" as="geometry">
            <mxPoint x="390" y="360" as="sourcePoint" />
            <mxPoint x="440" y="310" as="targetPoint" />
            <Array as="points">
              <mxPoint x="940" y="140" />
            </Array>
          </mxGeometry>
        </mxCell>
        <mxCell id="MYRkEVuzvfeUx_2Qi6E3-66" value="" style="endArrow=classic;html=1;rounded=0;exitX=0.5;exitY=0.5;exitDx=0;exitDy=0;exitPerimeter=0;entryX=0;entryY=0.5;entryDx=0;entryDy=0;" parent="1" source="MYRkEVuzvfeUx_2Qi6E3-7" target="MYRkEVuzvfeUx_2Qi6E3-30" edge="1">
          <mxGeometry width="50" height="50" relative="1" as="geometry">
            <mxPoint x="150" y="500" as="sourcePoint" />
            <mxPoint x="240" y="430" as="targetPoint" />
            <Array as="points">
              <mxPoint x="-60" y="420" />
            </Array>
          </mxGeometry>
        </mxCell>
        <mxCell id="MYRkEVuzvfeUx_2Qi6E3-75" value="" style="endArrow=classic;html=1;rounded=0;exitX=0.5;exitY=0;exitDx=0;exitDy=0;" parent="1" source="MYRkEVuzvfeUx_2Qi6E3-17" target="MYRkEVuzvfeUx_2Qi6E3-19" edge="1">
          <mxGeometry width="50" height="50" relative="1" as="geometry">
            <mxPoint x="240" y="590" as="sourcePoint" />
            <mxPoint x="330" y="520" as="targetPoint" />
            <Array as="points">
              <mxPoint x="440" y="240" />
            </Array>
          </mxGeometry>
        </mxCell>
        <mxCell id="EgMsii5ivorulvfqZ3dE-3" value="" style="endArrow=classic;html=1;rounded=0;entryX=1;entryY=0.5;entryDx=0;entryDy=0;exitX=0;exitY=0.5;exitDx=0;exitDy=0;" edge="1" parent="1" source="MYRkEVuzvfeUx_2Qi6E3-21" target="MYRkEVuzvfeUx_2Qi6E3-16">
          <mxGeometry width="50" height="50" relative="1" as="geometry">
            <mxPoint x="610" y="80" as="sourcePoint" />
            <mxPoint x="378" y="380" as="targetPoint" />
            <Array as="points">
              <mxPoint x="560" y="100" />
            </Array>
          </mxGeometry>
        </mxCell>
        <mxCell id="MYRkEVuzvfeUx_2Qi6E3-16" value="lista de reproduccion" style="ellipse;whiteSpace=wrap;html=1;" parent="1" vertex="1">
          <mxGeometry x="240" y="80" width="80" height="40" as="geometry" />
        </mxCell>
        <mxCell id="EgMsii5ivorulvfqZ3dE-4" value="" style="endArrow=classic;html=1;rounded=0;" edge="1" parent="1" source="MYRkEVuzvfeUx_2Qi6E3-25" target="MYRkEVuzvfeUx_2Qi6E3-20">
          <mxGeometry width="50" height="50" relative="1" as="geometry">
            <mxPoint x="565" y="405" as="sourcePoint" />
            <mxPoint x="390" y="60" as="targetPoint" />
            <Array as="points">
              <mxPoint x="540" y="300" />
              <mxPoint x="540" y="410" />
            </Array>
          </mxGeometry>
        </mxCell>
        <mxCell id="MYRkEVuzvfeUx_2Qi6E3-20" value="Espacio de busqueda" style="ellipse;whiteSpace=wrap;html=1;" parent="1" vertex="1">
          <mxGeometry x="400" y="437.5" width="80" height="40" as="geometry" />
        </mxCell>
        <mxCell id="EgMsii5ivorulvfqZ3dE-6" value="" style="endArrow=classic;html=1;rounded=0;exitX=0.5;exitY=0;exitDx=0;exitDy=0;" edge="1" parent="1" source="MYRkEVuzvfeUx_2Qi6E3-20" target="MYRkEVuzvfeUx_2Qi6E3-33">
          <mxGeometry width="50" height="50" relative="1" as="geometry">
            <mxPoint x="440" y="280" as="sourcePoint" />
            <mxPoint x="490" y="230" as="targetPoint" />
            <Array as="points">
              <mxPoint x="440" y="420" />
            </Array>
          </mxGeometry>
        </mxCell>
        <mxCell id="EgMsii5ivorulvfqZ3dE-7" value="" style="endArrow=classic;html=1;rounded=0;exitX=0.5;exitY=0;exitDx=0;exitDy=0;" edge="1" parent="1" source="MYRkEVuzvfeUx_2Qi6E3-20" target="MYRkEVuzvfeUx_2Qi6E3-19">
          <mxGeometry width="50" height="50" relative="1" as="geometry">
            <mxPoint x="440" y="180" as="sourcePoint" />
            <mxPoint x="490" y="130" as="targetPoint" />
          </mxGeometry>
        </mxCell>
        <mxCell id="EgMsii5ivorulvfqZ3dE-8" value="" style="endArrow=classic;html=1;rounded=0;exitX=1;exitY=0.5;exitDx=0;exitDy=0;" edge="1" parent="1" source="MYRkEVuzvfeUx_2Qi6E3-27" target="MYRkEVuzvfeUx_2Qi6E3-19">
          <mxGeometry width="50" height="50" relative="1" as="geometry">
            <mxPoint x="410" y="290" as="sourcePoint" />
            <mxPoint x="460" y="240" as="targetPoint" />
            <Array as="points">
              <mxPoint x="320" y="300" />
            </Array>
          </mxGeometry>
        </mxCell>
        <mxCell id="EgMsii5ivorulvfqZ3dE-9" value="" style="endArrow=classic;html=1;rounded=0;entryX=0;entryY=0.5;entryDx=0;entryDy=0;" edge="1" parent="1" source="MYRkEVuzvfeUx_2Qi6E3-28" target="MYRkEVuzvfeUx_2Qi6E3-33">
          <mxGeometry width="50" height="50" relative="1" as="geometry">
            <mxPoint x="242.9986018520113" y="610.7850087717788" as="sourcePoint" />
            <mxPoint x="413.55" y="449.21" as="targetPoint" />
          </mxGeometry>
        </mxCell>
        <mxCell id="EgMsii5ivorulvfqZ3dE-11" value="" style="endArrow=classic;html=1;rounded=0;exitX=0.5;exitY=0;exitDx=0;exitDy=0;" edge="1" parent="1" source="MYRkEVuzvfeUx_2Qi6E3-22" target="MYRkEVuzvfeUx_2Qi6E3-18">
          <mxGeometry width="50" height="50" relative="1" as="geometry">
            <mxPoint x="640" y="430" as="sourcePoint" />
            <mxPoint x="445" y="135" as="targetPoint" />
            <Array as="points">
              <mxPoint x="590" y="330" />
              <mxPoint x="590" y="250" />
            </Array>
          </mxGeometry>
        </mxCell>
        <mxCell id="MYRkEVuzvfeUx_2Qi6E3-18" value="añadir" style="ellipse;whiteSpace=wrap;html=1;" parent="1" vertex="1">
          <mxGeometry x="600" y="200" width="80" height="40" as="geometry" />
        </mxCell>
        <mxCell id="EgMsii5ivorulvfqZ3dE-15" value="" style="endArrow=classic;html=1;rounded=0;" edge="1" parent="1" source="MYRkEVuzvfeUx_2Qi6E3-22" target="MYRkEVuzvfeUx_2Qi6E3-21">
          <mxGeometry width="50" height="50" relative="1" as="geometry">
            <mxPoint x="540" y="380" as="sourcePoint" />
            <mxPoint x="620" y="140" as="targetPoint" />
            <Array as="points">
              <mxPoint x="570" y="340" />
              <mxPoint x="570" y="180" />
            </Array>
          </mxGeometry>
        </mxCell>
        <mxCell id="MYRkEVuzvfeUx_2Qi6E3-21" value="favoritos" style="ellipse;whiteSpace=wrap;html=1;" parent="1" vertex="1">
          <mxGeometry x="600" y="120" width="80" height="40" as="geometry" />
        </mxCell>
        <mxCell id="EgMsii5ivorulvfqZ3dE-17" value="" style="endArrow=classic;html=1;rounded=0;exitX=0;exitY=0.5;exitDx=0;exitDy=0;" edge="1" parent="1" source="MYRkEVuzvfeUx_2Qi6E3-24" target="MYRkEVuzvfeUx_2Qi6E3-27">
          <mxGeometry width="50" height="50" relative="1" as="geometry">
            <mxPoint x="670" y="170" as="sourcePoint" />
            <mxPoint x="320" y="240" as="targetPoint" />
            <Array as="points">
              <mxPoint x="360" y="-20" />
              <mxPoint x="360" y="130" />
            </Array>
          </mxGeometry>
        </mxCell>
        <mxCell id="EgMsii5ivorulvfqZ3dE-18" value="" style="endArrow=classic;html=1;rounded=0;" edge="1" parent="1" source="MYRkEVuzvfeUx_2Qi6E3-16" target="MYRkEVuzvfeUx_2Qi6E3-27">
          <mxGeometry width="50" height="50" relative="1" as="geometry">
            <mxPoint x="354" y="55" as="sourcePoint" />
            <mxPoint x="371" y="300" as="targetPoint" />
          </mxGeometry>
        </mxCell>
        <mxCell id="MYRkEVuzvfeUx_2Qi6E3-27" value="imagen" style="ellipse;whiteSpace=wrap;html=1;" parent="1" vertex="1">
          <mxGeometry x="240" y="160" width="80" height="40" as="geometry" />
        </mxCell>
        <mxCell id="EgMsii5ivorulvfqZ3dE-20" value="" style="endArrow=classic;html=1;rounded=0;" edge="1" parent="1" source="MYRkEVuzvfeUx_2Qi6E3-7" target="MYRkEVuzvfeUx_2Qi6E3-23">
          <mxGeometry width="50" height="50" relative="1" as="geometry">
            <mxPoint x="-40" y="410" as="sourcePoint" />
            <mxPoint x="10" y="360" as="targetPoint" />
            <Array as="points">
              <mxPoint x="-60" y="340" />
            </Array>
          </mxGeometry>
        </mxCell>
        <mxCell id="EgMsii5ivorulvfqZ3dE-21" value="" style="endArrow=classic;html=1;rounded=0;" edge="1" parent="1" source="MYRkEVuzvfeUx_2Qi6E3-7" target="MYRkEVuzvfeUx_2Qi6E3-17">
          <mxGeometry width="50" height="50" relative="1" as="geometry">
            <mxPoint x="-40" y="340" as="sourcePoint" />
            <mxPoint x="10" y="290" as="targetPoint" />
            <Array as="points">
              <mxPoint x="-60" y="260" />
            </Array>
          </mxGeometry>
        </mxCell>
        <mxCell id="EgMsii5ivorulvfqZ3dE-22" value="" style="endArrow=classic;html=1;rounded=0;" edge="1" parent="1" source="MYRkEVuzvfeUx_2Qi6E3-17" target="MYRkEVuzvfeUx_2Qi6E3-28">
          <mxGeometry width="50" height="50" relative="1" as="geometry">
            <mxPoint x="100" y="360" as="sourcePoint" />
            <mxPoint x="150" y="310" as="targetPoint" />
            <Array as="points">
              <mxPoint x="160" y="260" />
            </Array>
          </mxGeometry>
        </mxCell>
        <mxCell id="EgMsii5ivorulvfqZ3dE-23" value="" style="endArrow=classic;html=1;rounded=0;" edge="1" parent="1" source="MYRkEVuzvfeUx_2Qi6E3-23" target="MYRkEVuzvfeUx_2Qi6E3-28">
          <mxGeometry width="50" height="50" relative="1" as="geometry">
            <mxPoint x="230" y="370" as="sourcePoint" />
            <mxPoint x="280" y="320" as="targetPoint" />
            <Array as="points">
              <mxPoint x="160" y="340" />
            </Array>
          </mxGeometry>
        </mxCell>
        <mxCell id="EgMsii5ivorulvfqZ3dE-24" value="" style="endArrow=classic;html=1;rounded=0;" edge="1" parent="1" source="MYRkEVuzvfeUx_2Qi6E3-30" target="MYRkEVuzvfeUx_2Qi6E3-28">
          <mxGeometry width="50" height="50" relative="1" as="geometry">
            <mxPoint x="170" y="380" as="sourcePoint" />
            <mxPoint x="220" y="330" as="targetPoint" />
          </mxGeometry>
        </mxCell>
        <mxCell id="MYRkEVuzvfeUx_2Qi6E3-24" value="crear&amp;nbsp;" style="ellipse;whiteSpace=wrap;html=1;" parent="1" vertex="1">
          <mxGeometry x="600" y="-40" width="80" height="40" as="geometry" />
        </mxCell>
        <mxCell id="EgMsii5ivorulvfqZ3dE-34" value="" style="endArrow=classic;html=1;rounded=0;" edge="1" parent="1" source="MYRkEVuzvfeUx_2Qi6E3-17" target="MYRkEVuzvfeUx_2Qi6E3-27">
          <mxGeometry width="50" height="50" relative="1" as="geometry">
            <mxPoint x="120" y="250" as="sourcePoint" />
            <mxPoint x="170" y="200" as="targetPoint" />
            <Array as="points">
              <mxPoint x="40" y="180" />
            </Array>
          </mxGeometry>
        </mxCell>
        <mxCell id="EgMsii5ivorulvfqZ3dE-35" value="" style="endArrow=classic;html=1;rounded=0;" edge="1" parent="1" target="MYRkEVuzvfeUx_2Qi6E3-13">
          <mxGeometry width="50" height="50" relative="1" as="geometry">
            <mxPoint x="320" y="180" as="sourcePoint" />
            <mxPoint x="140" y="150" as="targetPoint" />
          </mxGeometry>
        </mxCell>
        <mxCell id="EgMsii5ivorulvfqZ3dE-36" value="" style="endArrow=classic;html=1;rounded=0;exitX=0.5;exitY=0;exitDx=0;exitDy=0;" edge="1" parent="1" source="MYRkEVuzvfeUx_2Qi6E3-17" target="MYRkEVuzvfeUx_2Qi6E3-13">
          <mxGeometry width="50" height="50" relative="1" as="geometry">
            <mxPoint x="150" y="260" as="sourcePoint" />
            <mxPoint x="200" y="210" as="targetPoint" />
            <Array as="points">
              <mxPoint x="240" y="240" />
              <mxPoint x="440" y="240" />
            </Array>
          </mxGeometry>
        </mxCell>
        <mxCell id="EgMsii5ivorulvfqZ3dE-37" value="" style="endArrow=classic;html=1;rounded=0;" edge="1" parent="1" source="MYRkEVuzvfeUx_2Qi6E3-15" target="MYRkEVuzvfeUx_2Qi6E3-24">
          <mxGeometry width="50" height="50" relative="1" as="geometry">
            <mxPoint x="650" y="-20" as="sourcePoint" />
            <mxPoint x="700" y="-70" as="targetPoint" />
          </mxGeometry>
        </mxCell>
        <mxCell id="EgMsii5ivorulvfqZ3dE-38" value="" style="endArrow=classic;html=1;rounded=0;" edge="1" parent="1" source="MYRkEVuzvfeUx_2Qi6E3-15" target="MYRkEVuzvfeUx_2Qi6E3-16">
          <mxGeometry width="50" height="50" relative="1" as="geometry">
            <mxPoint x="470" y="-10" as="sourcePoint" />
            <mxPoint x="520" y="-60" as="targetPoint" />
            <Array as="points">
              <mxPoint x="280" y="-100" />
            </Array>
          </mxGeometry>
        </mxCell>
        <mxCell id="EgMsii5ivorulvfqZ3dE-39" value="" style="endArrow=classic;html=1;rounded=0;" edge="1" parent="1" source="MYRkEVuzvfeUx_2Qi6E3-24" target="MYRkEVuzvfeUx_2Qi6E3-16">
          <mxGeometry width="50" height="50" relative="1" as="geometry">
            <mxPoint x="430" y="40" as="sourcePoint" />
            <mxPoint x="480" y="-10" as="targetPoint" />
            <Array as="points">
              <mxPoint x="280" y="-20" />
            </Array>
          </mxGeometry>
        </mxCell>
        <mxCell id="EgMsii5ivorulvfqZ3dE-40" value="" style="endArrow=classic;html=1;rounded=0;" edge="1" parent="1" source="MYRkEVuzvfeUx_2Qi6E3-8" target="MYRkEVuzvfeUx_2Qi6E3-15">
          <mxGeometry width="50" height="50" relative="1" as="geometry">
            <mxPoint x="830" y="-30" as="sourcePoint" />
            <mxPoint x="880" y="-80" as="targetPoint" />
            <Array as="points">
              <mxPoint x="940" y="-100" />
            </Array>
          </mxGeometry>
        </mxCell>
        <mxCell id="EgMsii5ivorulvfqZ3dE-41" value="" style="endArrow=classic;html=1;rounded=0;exitX=0.5;exitY=0.5;exitDx=0;exitDy=0;exitPerimeter=0;" edge="1" parent="1" source="MYRkEVuzvfeUx_2Qi6E3-8" target="MYRkEVuzvfeUx_2Qi6E3-20">
          <mxGeometry width="50" height="50" relative="1" as="geometry">
            <mxPoint x="940" y="30" as="sourcePoint" />
            <mxPoint x="910" y="110" as="targetPoint" />
            <Array as="points">
              <mxPoint x="1000" y="-140" />
              <mxPoint x="1000" y="20" />
              <mxPoint x="1000" y="457" />
            </Array>
          </mxGeometry>
        </mxCell>
        <mxCell id="EgMsii5ivorulvfqZ3dE-43" value="" style="endArrow=classic;html=1;rounded=0;entryX=1;entryY=0.5;entryDx=0;entryDy=0;" edge="1" parent="1" target="MYRkEVuzvfeUx_2Qi6E3-20">
          <mxGeometry width="50" height="50" relative="1" as="geometry">
            <mxPoint x="940" y="260" as="sourcePoint" />
            <mxPoint x="830" y="250" as="targetPoint" />
            <Array as="points">
              <mxPoint x="980" y="260" />
              <mxPoint x="980" y="420" />
              <mxPoint x="560" y="420" />
            </Array>
          </mxGeometry>
        </mxCell>
        <mxCell id="EgMsii5ivorulvfqZ3dE-44" value="" style="endArrow=classic;html=1;rounded=0;" edge="1" parent="1" target="MYRkEVuzvfeUx_2Qi6E3-20">
          <mxGeometry width="50" height="50" relative="1" as="geometry">
            <mxPoint x="-60" y="460" as="sourcePoint" />
            <mxPoint x="320" y="510" as="targetPoint" />
          </mxGeometry>
        </mxCell>
        <mxCell id="EgMsii5ivorulvfqZ3dE-46" value="" style="endArrow=classic;html=1;rounded=0;" edge="1" parent="1" source="MYRkEVuzvfeUx_2Qi6E3-26" target="MYRkEVuzvfeUx_2Qi6E3-21">
          <mxGeometry width="50" height="50" relative="1" as="geometry">
            <mxPoint x="630" y="140" as="sourcePoint" />
            <mxPoint x="680" y="90" as="targetPoint" />
          </mxGeometry>
        </mxCell>
        <mxCell id="EgMsii5ivorulvfqZ3dE-47" value="" style="endArrow=classic;html=1;rounded=0;" edge="1" parent="1" source="MYRkEVuzvfeUx_2Qi6E3-24" target="MYRkEVuzvfeUx_2Qi6E3-21">
          <mxGeometry width="50" height="50" relative="1" as="geometry">
            <mxPoint x="550" y="80" as="sourcePoint" />
            <mxPoint x="600" y="30" as="targetPoint" />
            <Array as="points">
              <mxPoint x="590" y="20" />
              <mxPoint x="590" y="90" />
            </Array>
          </mxGeometry>
        </mxCell>
        <mxCell id="EgMsii5ivorulvfqZ3dE-48" value="" style="endArrow=classic;html=1;rounded=0;" edge="1" parent="1" source="MYRkEVuzvfeUx_2Qi6E3-26">
          <mxGeometry width="50" height="50" relative="1" as="geometry">
            <mxPoint x="480" y="160" as="sourcePoint" />
            <mxPoint x="314" y="172" as="targetPoint" />
            <Array as="points">
              <mxPoint x="440" y="60" />
              <mxPoint x="380" y="60" />
              <mxPoint x="380" y="130" />
            </Array>
          </mxGeometry>
        </mxCell>
      </root>
    </mxGraphModel>
  </diagram>
</mxfile>
